<mxfile host="app.diagrams.net" agent="Mozilla/5.0 (Windows NT 10.0; Win64; x64) AppleWebKit/537.36 (KHTML, like Gecko) Chrome/129.0.0.0 Safari/537.36 Edg/129.0.0.0" version="24.7.6">
  <diagram name="第 1 页" id="tBFIpSI2pAxECf2_yVGH">
    <mxGraphModel dx="1282" dy="1734" grid="1" gridSize="10" guides="1" tooltips="1" connect="1" arrows="1" fold="1" page="1" pageScale="1" pageWidth="1654" pageHeight="1169" math="0" shadow="0">
      <root>
        <mxCell id="0" />
        <mxCell id="1" parent="0" />
        <mxCell id="15DaxtBuFerl60e92y_K-10" value="" style="rounded=0;whiteSpace=wrap;html=1;fillColor=none;" vertex="1" parent="1">
          <mxGeometry y="-150" width="432.5" height="190" as="geometry" />
        </mxCell>
        <mxCell id="15DaxtBuFerl60e92y_K-33" style="edgeStyle=orthogonalEdgeStyle;rounded=0;orthogonalLoop=1;jettySize=auto;html=1;exitX=1;exitY=0.5;exitDx=0;exitDy=0;exitPerimeter=0;" edge="1" parent="1" source="15DaxtBuFerl60e92y_K-1" target="15DaxtBuFerl60e92y_K-4">
          <mxGeometry relative="1" as="geometry" />
        </mxCell>
        <mxCell id="15DaxtBuFerl60e92y_K-34" value="上传" style="edgeLabel;html=1;align=center;verticalAlign=middle;resizable=0;points=[];" vertex="1" connectable="0" parent="15DaxtBuFerl60e92y_K-33">
          <mxGeometry x="-0.2062" y="1" relative="1" as="geometry">
            <mxPoint x="1" as="offset" />
          </mxGeometry>
        </mxCell>
        <mxCell id="15DaxtBuFerl60e92y_K-1" value="" style="outlineConnect=0;dashed=0;verticalLabelPosition=bottom;verticalAlign=top;align=center;html=1;shape=mxgraph.aws3.users;fillColor=#D2D3D3;gradientColor=none;" vertex="1" parent="1">
          <mxGeometry x="177.5" y="467.5" width="90" height="90" as="geometry" />
        </mxCell>
        <mxCell id="15DaxtBuFerl60e92y_K-6" style="edgeStyle=orthogonalEdgeStyle;rounded=0;orthogonalLoop=1;jettySize=auto;html=1;entryX=1;entryY=0.5;entryDx=0;entryDy=0;exitX=1;exitY=0.5;exitDx=0;exitDy=0;" edge="1" parent="1" source="15DaxtBuFerl60e92y_K-4" target="15DaxtBuFerl60e92y_K-5">
          <mxGeometry relative="1" as="geometry">
            <mxPoint x="570" y="512.5" as="sourcePoint" />
            <mxPoint x="570" y="420" as="targetPoint" />
          </mxGeometry>
        </mxCell>
        <mxCell id="15DaxtBuFerl60e92y_K-8" value="同步模型文件" style="edgeLabel;html=1;align=center;verticalAlign=middle;resizable=0;points=[];" vertex="1" connectable="0" parent="15DaxtBuFerl60e92y_K-6">
          <mxGeometry x="0.0087" y="3" relative="1" as="geometry">
            <mxPoint x="13" y="5" as="offset" />
          </mxGeometry>
        </mxCell>
        <mxCell id="15DaxtBuFerl60e92y_K-4" value="对象存储" style="rounded=0;whiteSpace=wrap;html=1;" vertex="1" parent="1">
          <mxGeometry x="430" y="485" width="130" height="55" as="geometry" />
        </mxCell>
        <mxCell id="15DaxtBuFerl60e92y_K-5" value="JuiceFS文件系统" style="rounded=0;whiteSpace=wrap;html=1;" vertex="1" parent="1">
          <mxGeometry x="430" y="390" width="130" height="60" as="geometry" />
        </mxCell>
        <mxCell id="15DaxtBuFerl60e92y_K-11" value="Node" style="text;html=1;align=center;verticalAlign=middle;whiteSpace=wrap;rounded=0;" vertex="1" parent="1">
          <mxGeometry x="20" y="80" width="60" height="30" as="geometry" />
        </mxCell>
        <mxCell id="15DaxtBuFerl60e92y_K-12" value="AI模型推理Pod" style="rounded=1;whiteSpace=wrap;html=1;" vertex="1" parent="1">
          <mxGeometry x="40" y="110" width="110" height="40" as="geometry" />
        </mxCell>
        <mxCell id="15DaxtBuFerl60e92y_K-25" style="edgeStyle=orthogonalEdgeStyle;rounded=0;orthogonalLoop=1;jettySize=auto;html=1;exitX=0.5;exitY=1;exitDx=0;exitDy=0;entryX=0.75;entryY=0;entryDx=0;entryDy=0;" edge="1" parent="1" source="15DaxtBuFerl60e92y_K-14" target="15DaxtBuFerl60e92y_K-17">
          <mxGeometry relative="1" as="geometry" />
        </mxCell>
        <mxCell id="15DaxtBuFerl60e92y_K-14" value="Worker Pod" style="rounded=1;whiteSpace=wrap;html=1;" vertex="1" parent="1">
          <mxGeometry x="265" y="110" width="110" height="40" as="geometry" />
        </mxCell>
        <mxCell id="15DaxtBuFerl60e92y_K-26" style="edgeStyle=orthogonalEdgeStyle;rounded=0;orthogonalLoop=1;jettySize=auto;html=1;exitX=1;exitY=0.5;exitDx=0;exitDy=0;" edge="1" parent="1" source="15DaxtBuFerl60e92y_K-15" target="15DaxtBuFerl60e92y_K-16">
          <mxGeometry relative="1" as="geometry" />
        </mxCell>
        <mxCell id="15DaxtBuFerl60e92y_K-15" value="FUSE Pod" style="rounded=1;whiteSpace=wrap;html=1;" vertex="1" parent="1">
          <mxGeometry x="40" y="195" width="110" height="40" as="geometry" />
        </mxCell>
        <mxCell id="15DaxtBuFerl60e92y_K-16" value="" style="rounded=0;whiteSpace=wrap;html=1;" vertex="1" parent="1">
          <mxGeometry x="200" y="180" width="240" height="70" as="geometry" />
        </mxCell>
        <mxCell id="15DaxtBuFerl60e92y_K-17" value="Local Cache" style="text;html=1;align=center;verticalAlign=middle;whiteSpace=wrap;rounded=0;" vertex="1" parent="1">
          <mxGeometry x="267.5" y="180" width="80" height="30" as="geometry" />
        </mxCell>
        <mxCell id="15DaxtBuFerl60e92y_K-18" value="HDD" style="rounded=0;whiteSpace=wrap;html=1;" vertex="1" parent="1">
          <mxGeometry x="200" y="220" width="65" height="30" as="geometry" />
        </mxCell>
        <mxCell id="15DaxtBuFerl60e92y_K-21" value="SSD" style="rounded=0;whiteSpace=wrap;html=1;" vertex="1" parent="1">
          <mxGeometry x="275" y="220" width="65" height="30" as="geometry" />
        </mxCell>
        <mxCell id="15DaxtBuFerl60e92y_K-22" value="RAM" style="rounded=0;whiteSpace=wrap;html=1;" vertex="1" parent="1">
          <mxGeometry x="345" y="220" width="65" height="30" as="geometry" />
        </mxCell>
        <mxCell id="15DaxtBuFerl60e92y_K-23" value="&lt;font style=&quot;font-size: 14px;&quot;&gt;&lt;b style=&quot;&quot;&gt;...&lt;/b&gt;&lt;/font&gt;" style="text;html=1;align=center;verticalAlign=middle;whiteSpace=wrap;rounded=0;" vertex="1" parent="1">
          <mxGeometry x="395" y="220" width="60" height="30" as="geometry" />
        </mxCell>
        <mxCell id="15DaxtBuFerl60e92y_K-32" value="" style="rounded=0;whiteSpace=wrap;html=1;fillColor=none;" vertex="1" parent="1">
          <mxGeometry x="432.5" y="-30" width="135" height="70" as="geometry" />
        </mxCell>
        <mxCell id="15DaxtBuFerl60e92y_K-35" value="&lt;b&gt;&lt;font style=&quot;font-size: 14px;&quot;&gt;研究院侧&lt;/font&gt;&lt;/b&gt;" style="text;html=1;align=center;verticalAlign=middle;whiteSpace=wrap;rounded=0;" vertex="1" parent="1">
          <mxGeometry x="192.5" y="570" width="60" height="30" as="geometry" />
        </mxCell>
        <mxCell id="15DaxtBuFerl60e92y_K-36" value="&lt;span style=&quot;color: rgb(0, 0, 0); font-family: Helvetica; font-size: 12px; font-style: normal; font-variant-ligatures: normal; font-variant-caps: normal; font-weight: 400; letter-spacing: normal; orphans: 2; text-align: center; text-indent: 0px; text-transform: none; widows: 2; word-spacing: 0px; -webkit-text-stroke-width: 0px; white-space: normal; background-color: rgb(251, 251, 251); text-decoration-thickness: initial; text-decoration-style: initial; text-decoration-color: initial; display: inline !important; float: none;&quot;&gt;JuiceFS文件系统&lt;/span&gt;" style="text;whiteSpace=wrap;html=1;" vertex="1" parent="1">
          <mxGeometry x="680" y="130" width="120" height="40" as="geometry" />
        </mxCell>
        <mxCell id="15DaxtBuFerl60e92y_K-37" value="对象存储" style="rounded=1;whiteSpace=wrap;html=1;" vertex="1" parent="1">
          <mxGeometry x="790" y="220" width="120" height="60" as="geometry" />
        </mxCell>
        <mxCell id="15DaxtBuFerl60e92y_K-38" value="" style="rounded=1;whiteSpace=wrap;html=1;" vertex="1" parent="1">
          <mxGeometry x="970" y="220" width="120" height="60" as="geometry" />
        </mxCell>
      </root>
    </mxGraphModel>
  </diagram>
</mxfile>
